<!DOCTYPE svg PUBLIC "-//W3C//DTD SVG 1.1//EN" "http://www.w3.org/Graphics/SVG/1.1/DTD/svg11.dtd">
<!-- Uploaded to: SVG Repo, www.svgrepo.com, Transformed by: SVG Repo Mixer Tools -->
<svg version="1.1" id="Layer_1" xmlns="http://www.w3.org/2000/svg" xmlns:xlink="http://www.w3.org/1999/xlink" viewBox="0 0 512 512" xml:space="preserve" width="80px" height="80px" fill="#000000">
<g id="SVGRepo_bgCarrier" stroke-width="0"/>
<g id="SVGRepo_tracerCarrier" stroke-linecap="round" stroke-linejoin="round"/>
<g id="SVGRepo_iconCarrier"> <path style="fill:#81398a;" d="M469.609,380.843h-0.283v-59.149c0-99.289-67.849-182.729-159.711-206.493 c-1.169,3.097-2.987,6.005-5.48,8.498c-7.02,7.02-17.299,8.79-25.967,5.318c-3.674,8.584-12.193,14.602-22.121,14.602 c-9.929,0-18.447-6.017-22.121-14.602c-8.667,3.472-18.946,1.703-25.967-5.318c-2.493-2.493-4.311-5.401-5.48-8.498 C110.617,138.964,42.77,222.405,42.77,321.694v59.149h-0.378c-19.214,0-34.788,15.575-34.788,34.788v53.978 c0,19.212,15.575,34.788,34.788,34.788h427.218c19.212,0,34.787-15.576,34.787-34.788V415.63 C504.396,396.418,488.821,380.843,469.609,380.843z"/> <path style="fill:#F2962E;" d="M324.054,75.611c0-9.929-6.017-18.447-14.601-22.121c3.472-8.667,1.702-18.946-5.318-25.967 c-7.02-7.02-17.299-8.79-25.967-5.318c-3.673-8.583-12.193-14.601-22.121-14.601c-9.929,0-18.447,6.017-22.121,14.602 c-8.667-3.472-18.946-1.703-25.967,5.318c-7.02,7.02-8.79,17.3-5.318,25.967c-8.584,3.674-14.602,12.194-14.602,22.121 s6.017,18.447,14.602,22.121c-3.472,8.667-1.702,18.946,5.318,25.967c7.02,7.02,17.298,8.79,25.967,5.318 c3.674,8.584,12.193,14.602,22.121,14.602c9.929,0,18.447-6.017,22.121-14.602c8.668,3.472,18.946,1.703,25.967-5.318 c7.02-7.02,8.79-17.3,5.318-25.967C318.038,94.059,324.054,85.539,324.054,75.611z"/> <g> <path style="fill:#ce77da;" d="M92.27,259.21l-14.21-5.417c19.552-51.29,60.208-91.629,111.543-110.673l5.289,14.258 C147.665,174.898,110.26,212.015,92.27,259.21z"/> <path style="fill:#ce77da;" d="M80.791,350.427H65.583v-28.733c0-16.165,2.044-32.257,6.076-47.832l14.722,3.811 c-3.71,14.33-5.59,29.141-5.59,44.021V350.427z"/> </g> <path style="fill:#F2962E;" d="M42.392,380.843c-19.213,0-34.788,15.575-34.788,34.788v53.978c0,19.212,15.575,34.788,34.788,34.788 h427.218c19.212,0,34.787-15.575,34.787-34.788V415.63c0-19.214-15.575-34.788-34.787-34.788H42.392z"/> <path style="fill:#7A1B2E;" d="M511.947,413.56c-0.011-0.227-0.031-0.451-0.046-0.676c-0.029-0.457-0.061-0.914-0.104-1.369 c-0.025-0.267-0.06-0.53-0.09-0.796c-0.048-0.41-0.097-0.819-0.156-1.226c-0.041-0.278-0.086-0.554-0.133-0.829 c-0.065-0.39-0.133-0.779-0.209-1.165c-0.055-0.279-0.112-0.557-0.172-0.834c-0.082-0.381-0.17-0.759-0.263-1.137 c-0.067-0.273-0.135-0.545-0.207-0.816c-0.101-0.38-0.211-0.758-0.322-1.134c-0.077-0.26-0.152-0.52-0.234-0.777 c-0.126-0.393-0.261-0.782-0.396-1.17c-0.082-0.233-0.159-0.469-0.245-0.701c-0.17-0.46-0.354-0.914-0.54-1.367 c-0.063-0.153-0.12-0.309-0.185-0.461c-0.253-0.596-0.52-1.184-0.8-1.766c-0.091-0.19-0.19-0.373-0.284-0.561 c-0.197-0.394-0.394-0.788-0.602-1.175c-0.126-0.233-0.259-0.461-0.388-0.691c-0.189-0.336-0.378-0.671-0.576-1.001 c-0.144-0.24-0.294-0.477-0.442-0.715c-0.196-0.312-0.393-0.624-0.597-0.931c-0.158-0.239-0.32-0.475-0.484-0.712 c-0.206-0.298-0.416-0.592-0.63-0.885c-0.17-0.232-0.341-0.463-0.516-0.692c-0.221-0.289-0.446-0.574-0.674-0.858 c-0.177-0.221-0.354-0.442-0.536-0.659c-0.241-0.288-0.49-0.57-0.738-0.852c-0.178-0.202-0.354-0.407-0.536-0.605 c-0.281-0.305-0.569-0.603-0.859-0.9c-0.16-0.164-0.316-0.334-0.479-0.496c-0.449-0.447-0.907-0.885-1.376-1.312 c-0.129-0.118-0.264-0.228-0.393-0.344c-0.351-0.312-0.704-0.623-1.066-0.924c-0.199-0.165-0.404-0.323-0.605-0.485 c-0.301-0.241-0.603-0.483-0.911-0.717c-0.223-0.169-0.45-0.332-0.677-0.497c-0.297-0.216-0.596-0.431-0.899-0.64 c-0.235-0.162-0.473-0.319-0.712-0.477c-0.304-0.201-0.611-0.397-0.921-0.591c-0.243-0.151-0.488-0.3-0.734-0.447 c-0.316-0.188-0.635-0.371-0.956-0.551c-0.247-0.138-0.494-0.277-0.744-0.411c-0.335-0.178-0.673-0.35-1.013-0.519 c-0.243-0.122-0.485-0.245-0.73-0.362c-0.373-0.177-0.751-0.345-1.129-0.512c-0.219-0.096-0.435-0.198-0.655-0.29 c-0.526-0.221-1.057-0.43-1.594-0.63c-0.078-0.029-0.154-0.062-0.232-0.091c-0.613-0.225-1.234-0.434-1.859-0.631 c-0.207-0.065-0.418-0.122-0.627-0.184c-0.427-0.127-0.854-0.252-1.286-0.366c-0.249-0.066-0.501-0.123-0.752-0.185 c-0.397-0.096-0.795-0.192-1.197-0.277c-0.268-0.057-0.537-0.107-0.806-0.159c-0.233-0.045-0.463-0.097-0.698-0.138v-52.177 c0-98.252-64.731-184.331-158.307-211.878c0.276-2.779,0.198-5.603-0.277-8.4c8.249-5.858,13.312-15.408,13.312-25.805 s-5.063-19.947-13.312-25.805c1.69-9.975-1.482-20.308-8.834-27.66c-5.978-5.978-13.925-9.27-22.38-9.27 c-1.78,0-3.543,0.147-5.277,0.439C275.997,5.064,266.446,0,256.048,0c-10.398,0-19.949,5.064-25.808,13.315 c-1.734-0.292-3.497-0.439-5.277-0.439c-8.455,0-16.402,3.292-22.38,9.27c-7.352,7.352-10.525,17.684-8.835,27.66 c-8.249,5.858-13.311,15.408-13.311,25.805s5.062,19.947,13.311,25.805c-0.473,2.797-0.552,5.62-0.276,8.4 C99.897,137.363,35.167,223.441,35.167,321.693v52.161c-0.251,0.044-0.499,0.098-0.749,0.147c-0.273,0.052-0.545,0.102-0.816,0.159 c-0.406,0.086-0.808,0.182-1.21,0.28c-0.246,0.06-0.494,0.116-0.738,0.179c-0.466,0.122-0.927,0.258-1.386,0.394 c-0.173,0.052-0.351,0.097-0.523,0.152c-0.628,0.197-1.249,0.408-1.864,0.633c-0.158,0.058-0.312,0.123-0.469,0.182 c-0.456,0.173-0.911,0.349-1.361,0.537c-0.227,0.095-0.45,0.199-0.675,0.298c-0.374,0.164-0.747,0.331-1.116,0.505 c-0.241,0.115-0.48,0.235-0.719,0.355c-0.346,0.172-0.69,0.347-1.031,0.528c-0.242,0.13-0.483,0.263-0.722,0.396 c-0.332,0.185-0.66,0.374-0.985,0.568c-0.236,0.141-0.472,0.283-0.706,0.428c-0.323,0.201-0.643,0.407-0.96,0.616 c-0.226,0.149-0.451,0.297-0.674,0.45c-0.323,0.222-0.641,0.45-0.957,0.681c-0.207,0.151-0.417,0.299-0.62,0.454 c-0.343,0.259-0.677,0.526-1.011,0.795c-0.169,0.136-0.342,0.268-0.509,0.407c-0.484,0.401-0.96,0.813-1.425,1.235 c-0.012,0.011-0.024,0.021-0.036,0.031c-0.477,0.434-0.942,0.879-1.399,1.334c-0.151,0.151-0.296,0.307-0.445,0.46 c-0.302,0.309-0.602,0.619-0.894,0.938c-0.171,0.187-0.337,0.378-0.505,0.568c-0.261,0.295-0.52,0.59-0.774,0.892 c-0.171,0.205-0.339,0.414-0.507,0.621c-0.239,0.297-0.476,0.596-0.707,0.899c-0.165,0.217-0.328,0.436-0.49,0.656 c-0.224,0.306-0.443,0.614-0.659,0.927c-0.155,0.223-0.309,0.447-0.459,0.674c-0.214,0.321-0.421,0.648-0.626,0.975 c-0.14,0.223-0.281,0.446-0.417,0.672c-0.211,0.351-0.412,0.707-0.612,1.064c-0.118,0.21-0.24,0.418-0.355,0.631 c-0.23,0.428-0.45,0.862-0.666,1.299c-0.073,0.148-0.152,0.292-0.223,0.441c-0.283,0.587-0.552,1.182-0.807,1.783 c-0.063,0.148-0.119,0.3-0.18,0.449c-0.188,0.457-0.373,0.916-0.544,1.38c-0.084,0.226-0.159,0.455-0.239,0.682 c-0.139,0.394-0.276,0.789-0.403,1.187c-0.081,0.254-0.155,0.512-0.231,0.768c-0.113,0.38-0.223,0.76-0.325,1.145 c-0.071,0.268-0.138,0.536-0.205,0.806c-0.093,0.381-0.182,0.763-0.266,1.149c-0.059,0.274-0.117,0.548-0.17,0.824 c-0.076,0.389-0.145,0.782-0.211,1.175c-0.046,0.274-0.091,0.548-0.132,0.824c-0.06,0.408-0.108,0.818-0.156,1.229 c-0.03,0.265-0.065,0.528-0.09,0.795c-0.044,0.455-0.075,0.913-0.104,1.372c-0.014,0.225-0.035,0.448-0.046,0.675 C0.019,414.246,0,414.936,0,415.63v53.978C0,492.983,19.017,512,42.393,512h427.217C492.984,512,512,492.983,512,469.608V415.63 C512,414.937,511.981,414.247,511.947,413.56z M205.633,60.48l6.829-2.923l-2.763-6.895c-2.454-6.127-1.027-13.099,3.636-17.763 c3.105-3.105,7.234-4.816,11.626-4.816c2.117,0,4.182,0.397,6.135,1.18l6.896,2.763l2.923-6.829c2.598-6.068,8.536-9.99,15.131-9.99 c6.594,0,12.533,3.921,15.131,9.99l2.923,6.829l6.896-2.763c1.954-0.783,4.018-1.18,6.135-1.18c4.393,0,8.522,1.71,11.627,4.816 c4.663,4.663,6.09,11.635,3.636,17.763l-2.763,6.895l6.829,2.923c6.068,2.598,9.99,8.536,9.99,15.131 c0,6.595-3.922,12.533-9.99,15.131l-6.829,2.923l2.763,6.895c1.509,3.765,1.545,7.847,0.272,11.519l-0.165,0.436 c-0.204,0.539-0.435,1.063-0.689,1.571c-0.008,0.017-0.016,0.033-0.024,0.051c-0.253,0.502-0.531,0.987-0.832,1.458 c-0.025,0.04-0.054,0.077-0.079,0.117c-0.257,0.391-0.533,0.77-0.823,1.139c-0.082,0.104-0.165,0.21-0.25,0.313 c-0.331,0.399-0.673,0.79-1.043,1.16c-3.105,3.104-7.234,4.815-11.627,4.815c-1.249,0-2.477-0.155-3.677-0.429 c-0.834-0.191-1.658-0.43-2.459-0.75l-6.895-2.763l0,0l0,0l-2.046,4.782l-0.876,2.046c-2.11,4.93-6.427,8.443-11.508,9.588 c-1.173,0.264-2.386,0.401-3.622,0.401c-6.594,0-12.533-3.921-15.131-9.99l-2.922-6.829l0,0l0,0l-2.763,1.107l-4.133,1.656 c-1.465,0.587-2.993,0.957-4.558,1.105c-0.522,0.05-1.048,0.074-1.578,0.074c-4.392,0-8.521-1.71-11.626-4.815 c-0.37-0.37-0.714-0.76-1.043-1.16c-0.085-0.103-0.168-0.209-0.25-0.313c-0.289-0.368-0.566-0.744-0.821-1.136 c-0.026-0.041-0.056-0.079-0.081-0.119c-0.301-0.469-0.579-0.955-0.831-1.456c-0.009-0.017-0.017-0.035-0.026-0.053 c-0.254-0.508-0.485-1.031-0.687-1.569l-0.167-0.443c-1.271-3.67-1.234-7.751,0.273-11.513l2.763-6.895l-6.829-2.923 c-6.068-2.598-9.989-8.536-9.989-15.131C195.646,69.017,199.565,63.077,205.633,60.48z M496.792,469.608 c0,14.989-12.194,27.184-27.183,27.184H42.393c-14.99,0-27.185-12.195-27.185-27.184V415.63c0-14.99,12.195-27.185,27.185-27.185 h7.982H356.26v-15.208H50.375v-51.545c0-91.768,60.634-172.141,148.19-197.535c0.055,0.082,0.115,0.161,0.169,0.243 c0.134,0.198,0.271,0.391,0.41,0.586c0.215,0.303,0.435,0.603,0.661,0.899c0.131,0.171,0.262,0.342,0.396,0.511 c0.26,0.325,0.527,0.644,0.8,0.96c0.118,0.136,0.231,0.274,0.351,0.408c0.398,0.446,0.807,0.884,1.232,1.31 c5.978,5.978,13.925,9.27,22.38,9.27c1.781,0,3.542-0.147,5.277-0.438c5.126,7.22,13.079,11.999,21.954,13.081 c1.267,0.154,2.554,0.233,3.854,0.233c10.398,0,19.949-5.064,25.808-13.315c1.734,0.292,3.497,0.438,5.277,0.438l0,0 c3.699,0,7.301-0.63,10.683-1.839c4.348-1.555,8.335-4.068,11.697-7.43c0.425-0.425,0.833-0.863,1.231-1.308 c0.122-0.136,0.237-0.276,0.356-0.414c0.271-0.314,0.537-0.631,0.795-0.954c0.135-0.169,0.267-0.342,0.398-0.514 c0.224-0.294,0.442-0.591,0.656-0.892c0.142-0.2,0.283-0.398,0.419-0.6c0.054-0.079,0.112-0.155,0.163-0.234 c87.556,25.393,148.192,105.767,148.192,197.535v51.545h-85.186v15.208h85.186h7.887c14.989,0,27.183,12.195,27.183,27.185 L496.792,469.608L496.792,469.608z"/> <g> <rect x="55.195" y="406.7" style="fill:#FFC88F;" width="15.208" height="71.846"/> <rect x="110.399" y="406.7" style="fill:#FFC88F;" width="15.208" height="71.846"/> <rect x="165.594" y="406.7" style="fill:#FFC88F;" width="15.208" height="71.846"/> <rect x="220.799" y="406.7" style="fill:#FFC88F;" width="15.208" height="71.846"/> <rect x="275.993" y="406.7" style="fill:#FFC88F;" width="15.208" height="71.846"/> <rect x="331.198" y="406.7" style="fill:#FFC88F;" width="15.208" height="71.846"/> <rect x="386.393" y="406.7" style="fill:#FFC88F;" width="15.208" height="71.846"/> <rect x="441.597" y="406.7" style="fill:#FFC88F;" width="15.208" height="71.846"/> </g> <rect x="173.198" y="342.827" style="fill:#ce77da;" width="165.594" height="15.208"/> </g>
</svg>